<svg xmlns="http://www.w3.org/2000/svg" width="369" height="127.526" viewBox="0 0 369 127.526">
  <g id="Raggruppa_14" data-name="Raggruppa 14" transform="translate(-86.936 -40.694)">
    <g id="Raggruppa_12" data-name="Raggruppa 12" transform="translate(86.936 40.694)">
      <path id="Tracciato_19" data-name="Tracciato 19" d="M181.781,40.694a4.189,4.189,0,0,0-2.552.877.09.09,0,0,1-.013.007l-.189.136-.027.019-.064.046v0a4.645,4.645,0,0,1-2.646.832H165.285a2.311,2.311,0,0,0-1.569.611L136.681,68.088a.3.3,0,0,1-.4,0L109.245,43.221a2.308,2.308,0,0,0-1.568-.611H91.169a2.321,2.321,0,0,0-2.318,2.318v11.5a4.646,4.646,0,0,1-.805,2.607h0l-.073.1-.017.024-.146.206a4.183,4.183,0,0,0-.877,2.552,4.233,4.233,0,1,0,8.466,0,4.192,4.192,0,0,0-.877-2.553,4.527,4.527,0,0,1-.458-.7l-.011-.02c-.089-.166-.145-.287-.153-.306h0a4.629,4.629,0,0,1-.418-1.912V47.543a.3.3,0,0,1,.3-.3h12.872a.291.291,0,0,1,.2.079l28.048,25.8a2.363,2.363,0,0,0,1.581.611,2.308,2.308,0,0,0,1.568-.611l28.049-25.8a.29.29,0,0,1,.2-.079h9.987a4.658,4.658,0,0,1,2.589.795v0l.075.053c.032.023.063.044.09.064l.167.119.016.009a4.179,4.179,0,0,0,2.552.877,4.234,4.234,0,0,0,0-8.467Z" transform="translate(-86.936 -40.694)" fill="#009fdf"/>
      <path id="Tracciato_20" data-name="Tracciato 20" d="M200.661,71.84a4.239,4.239,0,0,0-4.233,4.235,4.188,4.188,0,0,0,.877,2.553l.134.19c.021.028.044.062.068.1l.056.08h0a4.656,4.656,0,0,1,.782,2.572v65.517a.3.3,0,0,1-.3.3H180.609a.3.3,0,0,1-.3-.3l-.269-48.534a.352.352,0,0,0,0-.05c-.007-.043-.011-.075-.013-.107a2.163,2.163,0,0,0-.026-.249c-.011-.056-.026-.112-.042-.167l-.023-.082c-.018-.064-.035-.124-.057-.181a1.861,1.861,0,0,0-.085-.179l0,0a.122.122,0,0,1-.014-.021h0l-.024-.046a1.637,1.637,0,0,0-.083-.151,1.944,1.944,0,0,0-.128-.172l-.019-.022c-.031-.037-.05-.064-.068-.089a.533.533,0,0,0-.034-.047c-.086-.082-.149-.134-.212-.185l-.076-.065c-.035-.031-.065-.056-.1-.079a1.389,1.389,0,0,0-.142-.081l-.132-.075c-.05-.029-.082-.047-.117-.063s-.081-.028-.126-.043l-.147-.048a1.336,1.336,0,0,0-.152-.045c-.031-.007-.062-.01-.095-.014l-.108-.013c-.058-.008-.11-.011-.156-.014a1.252,1.252,0,0,1-.165-.019l-.045.009c-.037,0-.068.009-.1.011l-.029,0a1.691,1.691,0,0,0-.216.025c-.055.009-.1.022-.152.035l-.077.022a1.81,1.81,0,0,0-.2.065,2.061,2.061,0,0,0-.215.1l-.026.013c-.069.037-.117.061-.163.089a2.286,2.286,0,0,0-.184.14l-.093.07a.437.437,0,0,0-.046.034L158.391,113.32a.294.294,0,0,1-.2.079l-5.658,0a.294.294,0,0,1-.2-.079L138.277,100.3a.333.333,0,0,1-.04-.045,4.642,4.642,0,0,1-1.323-2.483h0l-.046-.241s0-.009,0-.014a4.221,4.221,0,0,0-7.229-2.251,4.238,4.238,0,0,0,.146,5.985,4.178,4.178,0,0,0,2.453,1.125l.016,0,.219.032.07.01.1.014v0a4.689,4.689,0,0,1,2.387,1.166l14.908,13.815a2.314,2.314,0,0,0,1.575.618h7.71a2.311,2.311,0,0,0,1.576-.619l14.15-13.113a.3.3,0,0,1,.2-.079.3.3,0,0,1,.3.3l.25,45.191a1.012,1.012,0,0,0,.013.137l.022.2a.946.946,0,0,0,.013.118,1.018,1.018,0,0,0,.038.13l.06.189a.976.976,0,0,0,.038.117,1.119,1.119,0,0,0,.063.119l.093.168a.956.956,0,0,0,.059.108,1.105,1.105,0,0,0,.083.1l.127.152a.774.774,0,0,0,.071.086,1.077,1.077,0,0,0,.109.093l.08.063c.02.016.042.035.064.054a1.091,1.091,0,0,0,.093.076,1.277,1.277,0,0,0,.144.079l.019.01.144.076a.6.6,0,0,0,.08.043,1.718,1.718,0,0,0,.222.073l.153.045c.027.009.044.015.063.02a2.374,2.374,0,0,0,.466.047h22.653a2.321,2.321,0,0,0,2.318-2.318V81.562a4.654,4.654,0,0,1,.849-2.667h0l.185-.257a.076.076,0,0,0,.007-.011,4.182,4.182,0,0,0,.877-2.552A4.239,4.239,0,0,0,200.661,71.84Z" transform="translate(-105.816 -54.852)" fill="#009fdf"/>
      <path id="Tracciato_21" data-name="Tracciato 21" d="M113.822,125.644a4.239,4.239,0,0,0-4.233,4.235,4.188,4.188,0,0,0,.877,2.553l.152.213v0l.05.07h0a4.656,4.656,0,0,1,.837,2.654v25.873a.3.3,0,0,1-.3.3H93.784a.3.3,0,0,1-.3-.3v-48.53a4.633,4.633,0,0,1,.412-1.9v0a3.987,3.987,0,0,1,.626-1.033,4.191,4.191,0,0,0,.877-2.552,4.233,4.233,0,1,0-8.466,0,4.187,4.187,0,0,0,.877,2.552,4,4,0,0,1,.453.688v0a4.659,4.659,0,0,1,.585,2.25v51.142a2.321,2.321,0,0,0,2.318,2.318h22.653a2.321,2.321,0,0,0,2.318-2.318V135.368a4.656,4.656,0,0,1,.838-2.651v0c.067-.1.148-.212.2-.284a4.187,4.187,0,0,0,.875-2.549A4.239,4.239,0,0,0,113.822,125.644Z" transform="translate(-86.936 -69.012)" fill="#009fdf"/>
      <path id="Tracciato_22" data-name="Tracciato 22" d="M108.578,132.7a4.186,4.186,0,0,0-.877,2.551,4.233,4.233,0,1,0,8.467,0,4.183,4.183,0,0,0-.878-2.552l-.159-.223h0a4.681,4.681,0,0,1-.879-2.712v-56.4a.3.3,0,0,1,.5-.215l25.565,24.191a4.657,4.657,0,0,1,1.374,2.422v0l.014.067v.008l.05.239a.081.081,0,0,1,0,.011,4.186,4.186,0,0,0,1.28,2.375,4.234,4.234,0,0,0,5.744-6.221,4.184,4.184,0,0,0-2.47-1.087l-.017,0-.242-.031h-.008l-.07-.009h0a4.65,4.65,0,0,1-2.528-1.187L113.527,65.607a2.318,2.318,0,0,0-3.911,1.684v62.467a4.662,4.662,0,0,1-.9,2.741h0l-.134.187S108.58,132.695,108.578,132.7Z" transform="translate(-96.375 -51.731)" fill="#009fdf"/>
      <path id="Tracciato_23" data-name="Tracciato 23" d="M196.852,83.466l-.217.031-.013,0a4.19,4.19,0,0,0-2.45,1.128,4.234,4.234,0,0,0,5.848,6.125,4.185,4.185,0,0,0,1.24-2.4c0-.005,0-.011,0-.016l.045-.236,0-.013.013-.069v0a4.665,4.665,0,0,1,1.323-2.429.192.192,0,0,1,.021-.022L215.8,73.15a.292.292,0,0,1,.321-.057.3.3,0,0,1,.18.273v56.393a.3.3,0,0,1-.011.079,4.652,4.652,0,0,1-.861,2.611h0l-.173.241-.005.01a4.187,4.187,0,0,0-.876,2.551,4.234,4.234,0,0,0,8.467,0,4.186,4.186,0,0,0-.878-2.552l-.208-.3h0a4.73,4.73,0,0,1-.821-2.478V67.291a2.319,2.319,0,0,0-3.911-1.684L199.445,82.241a4.667,4.667,0,0,1-2.436,1.2l0,0-.088.013Z" transform="translate(-135.087 -51.73)" fill="#009fdf"/>
      <path id="Tracciato_24" data-name="Tracciato 24" d="M301.905,106.107h0c.084-.136.211-.308.285-.407a4.184,4.184,0,0,0,.871-2.542,4.233,4.233,0,1,0-8.467,0,4.191,4.191,0,0,0,.865,2.535c.081.111.194.266.255.362v0a4.656,4.656,0,0,1,.794,2.59v28.488a2.321,2.321,0,0,0,2.319,2.318H321.48a2.321,2.321,0,0,0,2.318-2.318V46.524a2.321,2.321,0,0,0-2.318-2.318H298.828a2.321,2.321,0,0,0-2.319,2.318V80.675a4.646,4.646,0,0,1-.84,2.658h0l-.042.058-.014.02-.138.191a.09.09,0,0,1-.008.013,4.189,4.189,0,0,0-.876,2.551,4.233,4.233,0,1,0,8.467,0,4.179,4.179,0,0,0-.878-2.552s-.006-.011-.009-.016l-.132-.183-.026-.035-.043-.059h0a4.664,4.664,0,0,1-.83-2.64V49.139a.3.3,0,0,1,.3-.3h17.423a.3.3,0,0,1,.3.3v85.383a.3.3,0,0,1-.3.3H301.443a.3.3,0,0,1-.3-.3V108.646A4.668,4.668,0,0,1,301.905,106.107Z" transform="translate(-181.329 -42.29)" fill="#009fdf"/>
      <path id="Tracciato_25" data-name="Tracciato 25" d="M316.237,131.312a4.189,4.189,0,0,0-.877,2.552,4.234,4.234,0,0,0,8.467,0,4.183,4.183,0,0,0-.878-2.552s-.006-.01-.009-.015l-.14-.194-.008-.011-.028-.039h0a4.665,4.665,0,0,1-.855-2.679V71.65a4.648,4.648,0,0,1,.853-2.676h0l.18-.251s0-.008.007-.011a4.187,4.187,0,0,0,.878-2.553,4.234,4.234,0,1,0-8.467,0,4.192,4.192,0,0,0,.877,2.553s0,.009.007.013l.157.218h0a4.676,4.676,0,0,1,.875,2.708v56.724a4.671,4.671,0,0,1-.891,2.73h0l-.141.2S316.239,131.308,316.237,131.312Z" transform="translate(-190.768 -50.345)" fill="#009fdf"/>
      <path id="Tracciato_26" data-name="Tracciato 26" d="M424.866,128.379a.172.172,0,0,1-.017,0l-.226-.032-.042-.006-.1-.014,0,0a4.648,4.648,0,0,1-2.419-1.18.2.2,0,0,1-.048-.037l-15.9-14.787a2.318,2.318,0,0,0-3.9,1.7v47.228a.3.3,0,0,1-.3.3H384.506a.3.3,0,0,1-.3-.3V112.712a4.651,4.651,0,0,1,.835-2.648h0l.048-.067.012-.017.139-.193a.128.128,0,0,1,.007-.011,4.184,4.184,0,0,0,.877-2.552,4.233,4.233,0,0,0-8.467,0,4.188,4.188,0,0,0,.878,2.552s0,.008.007.012l.142.2h0a4.676,4.676,0,0,1,.89,2.73v51.142a2.32,2.32,0,0,0,2.318,2.318h22.652a2.321,2.321,0,0,0,2.319-2.318v-43.84a.3.3,0,0,1,.178-.273.292.292,0,0,1,.321.057l11.519,10.713a4.7,4.7,0,0,1,1.279,2.369l0,0,.066.338s0,.008,0,.011a4.2,4.2,0,0,0,4.162,3.57h.1a4.223,4.223,0,0,0,.377-8.422Z" transform="translate(-219.086 -69.012)" fill="#009fdf"/>
      <path id="Tracciato_27" data-name="Tracciato 27" d="M517.489,134.237a4.239,4.239,0,0,0-4.234,4.234,4.187,4.187,0,0,0,.878,2.552s0,.009.008.014l.14.194.009.011.025.035h0a4.666,4.666,0,0,1,.858,2.68v31.49a.3.3,0,0,1-.3.3H504.143a.291.291,0,0,1-.2-.08L486.457,159.4a.275.275,0,0,1-.022-.022,4.628,4.628,0,0,1-1.361-2.449v0l-.057-.281s0-.008,0-.012a4.234,4.234,0,1,0-4.57,4.917l.016,0,.213.028.093.013.1.013v0a4.662,4.662,0,0,1,2.428,1.171l18.25,16.973a2.313,2.313,0,0,0,1.579.622h14.374a2.321,2.321,0,0,0,2.318-2.318v-34.1a4.657,4.657,0,0,1,.877-2.71h0l.154-.214.007-.013a4.188,4.188,0,0,0,.879-2.553A4.239,4.239,0,0,0,517.489,134.237Z" transform="translate(-264.072 -83.215)" fill="#009fdf"/>
      <path id="Tracciato_28" data-name="Tracciato 28" d="M475.853,77.993l-.142-.2h0a4.664,4.664,0,0,1-.89-2.731V46.524a2.321,2.321,0,0,0-2.318-2.318H449.85a2.321,2.321,0,0,0-2.319,2.318V90.715a.3.3,0,0,1-.178.272.3.3,0,0,1-.322-.055l-49.181-46.1a2.309,2.309,0,0,0-1.586-.628H381.891a2.321,2.321,0,0,0-2.318,2.318v11.5a4.655,4.655,0,0,1-.845,2.665h0l-.041.057-.008.01-.14.195a.113.113,0,0,1-.007.011,4.193,4.193,0,0,0-.878,2.554,4.233,4.233,0,0,0,8.467,0,4.185,4.185,0,0,0-.877-2.553s-.006-.01-.009-.016l-.125-.175-.044-.062-.05-.07h0a4.665,4.665,0,0,1-.811-2.61V49.139a.3.3,0,0,1,.3-.3h10.726a.3.3,0,0,1,.2.08l52.83,49.518a2.375,2.375,0,0,0,2.508.437,2.318,2.318,0,0,0,1.395-2.128V49.139a.3.3,0,0,1,.3-.3h17.424a.3.3,0,0,1,.3.3v25.93a4.652,4.652,0,0,1-.837,2.649h0l-.048.066-.009.013-.138.193a.126.126,0,0,1-.008.013,4.191,4.191,0,0,0-.879,2.554,4.234,4.234,0,1,0,8.468,0A4.186,4.186,0,0,0,475.859,78Z" transform="translate(-219.086 -42.29)" fill="#009fdf"/>
      <path id="Tracciato_29" data-name="Tracciato 29" d="M399.3,131.313a4.176,4.176,0,0,0-.877,2.551,4.233,4.233,0,1,0,8.466,0,4.179,4.179,0,0,0-.877-2.552s0-.009-.008-.014l-.128-.179-.04-.056-.052-.074h0a4.652,4.652,0,0,1-.812-2.614V74.747a.3.3,0,0,1,.178-.272.3.3,0,0,1,.322.055l63.57,58.678a2.344,2.344,0,0,0,2.5.419,2.319,2.319,0,0,0,1.39-2.123V71.651a4.648,4.648,0,0,1,.825-2.637h0l.057-.08.01-.014.139-.2.006-.01a4.19,4.19,0,0,0,.879-2.554,4.233,4.233,0,1,0-8.467,0,4.192,4.192,0,0,0,.877,2.553.132.132,0,0,1,.008.014l.13.182.031.043.051.071h0a4.658,4.658,0,0,1,.82,2.625v53.885a.3.3,0,0,1-.177.273.305.305,0,0,1-.321-.055l-63.57-58.678a.306.306,0,0,0-.036-.027c-.036-.026-.062-.045-.086-.064l-.019-.015a2.01,2.01,0,0,0-.189-.142,1.434,1.434,0,0,0-.154-.083l-.026-.014-.036-.019-.038-.019c-.046-.023-.093-.047-.143-.067s-.128-.043-.193-.061l-.09-.025c-.049-.013-.1-.027-.149-.036a2.157,2.157,0,0,0-.271-.027c-.034,0-.064-.006-.094-.011a.368.368,0,0,0-.047-.005c-.129.007-.223.02-.323.034l-.081.011a.609.609,0,0,0-.092.012,1.891,1.891,0,0,0-.2.06l-.028.01-.027.009h0l-.068.022a.8.8,0,0,0-.11.038,1.173,1.173,0,0,0-.143.075l-.133.075a1.189,1.189,0,0,0-.116.068,1.107,1.107,0,0,0-.1.082l-.077.067a1.652,1.652,0,0,0-.169.15c-.009.009-.042.038-.052.046a.258.258,0,0,1-.019.03c-.023.034-.041.059-.062.085a2.282,2.282,0,0,0-.15.2,1.649,1.649,0,0,0-.086.158l-.032.062a1.779,1.779,0,0,0-.087.182c-.026.069-.046.142-.067.216l-.006.022a1.944,1.944,0,0,0-.049.194,2.071,2.071,0,0,0-.024.232c0,.051-.007.08-.011.106l0,.025a.345.345,0,0,0,0,.047v59.6a4.663,4.663,0,0,1-.877,2.71h0l-.155.216S399.3,131.309,399.3,131.313Z" transform="translate(-228.526 -50.345)" fill="#009fdf"/>
      <path id="Tracciato_30" data-name="Tracciato 30" d="M627.675,131.324a4.184,4.184,0,0,0-.878,2.553,4.234,4.234,0,1,0,8.468,0,4.173,4.173,0,0,0-.838-2.49,4.843,4.843,0,0,1-1.03-2.436c-.006-.052-.016-.1-.021-.154V91.138a.3.3,0,0,1,.3-.3h20.038a20.335,20.335,0,1,1,0,40.669h-.16a4.8,4.8,0,0,1-2.648-.8v0l-.066-.045-.007,0-.2-.137a.155.155,0,0,1-.017-.009,4.182,4.182,0,0,0-2.552-.878,4.234,4.234,0,0,0,0,8.468,4.189,4.189,0,0,0,2.545-.873l.212-.159a4.553,4.553,0,0,1,2.735-.933h.16a24.971,24.971,0,0,0,0-49.943H631.058a2.321,2.321,0,0,0-2.319,2.319v39.862s0,.007,0,.01a4.963,4.963,0,0,1-.477,1.984v0a4.638,4.638,0,0,1-.432.731h0l-.147.2S627.678,131.321,627.675,131.324Z" transform="translate(-332.335 -61.381)" fill="#009fdf"/>
      <path id="Tracciato_31" data-name="Tracciato 31" d="M670.374,176.318a4.212,4.212,0,0,0-7.351,1.808l-.076.315h0a4.58,4.58,0,0,1-1.344,2.288,43.24,43.24,0,0,1-26.747,9.341h-42.69a.3.3,0,0,1-.3-.3V175.479a4.651,4.651,0,0,1,.851-2.675h0l.035-.049,0,0,.142-.2s0-.009.007-.012a4.185,4.185,0,0,0,.879-2.553,4.234,4.234,0,1,0-8.468,0,4.185,4.185,0,0,0,.878,2.552.1.1,0,0,1,.007.012l.139.193.013.019.036.051h0a4.658,4.658,0,0,1,.844,2.66v16.914a2.321,2.321,0,0,0,2.318,2.318h45.306a47.877,47.877,0,0,0,29.6-10.328.3.3,0,0,1,.082-.046,4.819,4.819,0,0,1,2.528-1.043h0l.024,0h0l.224-.022a.247.247,0,0,1,.03-.006,4.178,4.178,0,0,0,2.518-.974A4.239,4.239,0,0,0,670.374,176.318Z" transform="translate(-313.479 -97.541)" fill="#009fdf"/>
      <path id="Tracciato_32" data-name="Tracciato 32" d="M589.549,101.98a4.239,4.239,0,0,0,4.234-4.234,4.19,4.19,0,0,0-.878-2.552.086.086,0,0,1-.008-.014l-.171-.238h0a4.663,4.663,0,0,1-.86-2.687V49.139a.3.3,0,0,1,.3-.3h42.69a42.995,42.995,0,0,1,41.2,55.275,4.712,4.712,0,0,1-1.7,2.024h0l-.273.187a4.233,4.233,0,1,0,6.207,2.556c0-.008,0-.017,0-.026s0,0,0-.007c-.035-.147-.082-.466-.082-.466h0a5.718,5.718,0,0,1,.232-2.7.242.242,0,0,1,.011-.08,47.625,47.625,0,0,0-45.587-61.406H589.549a2.321,2.321,0,0,0-2.318,2.318V92.26a4.652,4.652,0,0,1-.809,2.609h0l-.053.074c-.016.023-.032.045-.047.065l-.122.17s0,.01-.008.015a4.19,4.19,0,0,0-.879,2.553A4.239,4.239,0,0,0,589.549,101.98Z" transform="translate(-313.479 -42.29)" fill="#009fdf"/>
      <path id="Tracciato_33" data-name="Tracciato 33" d="M610.315,136.437h33.979a36.3,36.3,0,1,0,0-72.6H632.807a4.666,4.666,0,0,1-2.577-.785v0l-.069-.049-.114-.082-.163-.116a.156.156,0,0,1-.018-.01,4.187,4.187,0,0,0-2.549-.876,4.234,4.234,0,0,0,0,8.468,4.181,4.181,0,0,0,2.552-.878l.014-.008.195-.14.015-.01.055-.04h0a4.66,4.66,0,0,1,2.654-.841h11.493a31.661,31.661,0,1,1,0,63.323H612.93a.3.3,0,0,1-.3-.3V71.651a4.651,4.651,0,0,1,1-2.877.272.272,0,0,1,.035-.062,4.191,4.191,0,0,0,.879-2.554,4.234,4.234,0,0,0-8.468,0,4.194,4.194,0,0,0,.877,2.554.262.262,0,0,1,.037.064,4.66,4.66,0,0,1,1,2.87v62.472A2.321,2.321,0,0,0,610.315,136.437Z" transform="translate(-322.919 -50.345)" fill="#009fdf"/>
    </g>
    <g id="Raggruppa_13" data-name="Raggruppa 13" transform="translate(88.851 152.945)">
      <path id="Tracciato_34" data-name="Tracciato 34" d="M421.712,247.112l-6.381,14.769h3.508l1.373-3.19h6.19l1.373,3.19h3.507L424.9,247.112Zm-.253,8.685,1.859-4.289,1.838,4.289Z" transform="translate(-238.126 -246.774)" fill="#009fdf"/>
      <path id="Tracciato_35" data-name="Tracciato 35" d="M145.684,247.112h-3.3v14.769h9.593v-2.937h-6.3Z" transform="translate(-114.057 -246.774)" fill="#009fdf"/>
      <path id="Tracciato_36" data-name="Tracciato 36" d="M445.432,249.965h4.183v11.916h3.3V249.965h4.183v-2.853H445.432Z" transform="translate(-251.809 -246.774)" fill="#009fdf"/>
      <rect id="Rettangolo_19" data-name="Rettangolo 19" width="3.296" height="14.769" transform="translate(101.648 0.338)" fill="#009fdf"/>
      <path id="Tracciato_37" data-name="Tracciato 37" d="M207.456,256.621l-7.247-9.509h-3.085v14.769h3.3v-9.254l7.036,9.254h3.3V247.112h-3.3Z" transform="translate(-138.938 -246.774)" fill="#009fdf"/>
      <path id="Tracciato_38" data-name="Tracciato 38" d="M335.367,256.621l-7.247-9.509h-3.085v14.769h3.3v-9.254l7.036,9.254h3.3V247.112h-3.3Z" transform="translate(-197.081 -246.774)" fill="#009fdf"/>
      <path id="Tracciato_39" data-name="Tracciato 39" d="M301.783,256.621l-7.247-9.509h-3.085v14.769h3.3v-9.254l7.036,9.254h3.3V247.112h-3.3Z" transform="translate(-181.815 -246.774)" fill="#009fdf"/>
      <path id="Tracciato_40" data-name="Tracciato 40" d="M399.581,247.112l-3.762,9.4-3.761-9.4h-3.571l5.937,14.769h2.788l5.938-14.769Z" transform="translate(-225.925 -246.774)" fill="#009fdf"/>
      <path id="Tracciato_41" data-name="Tracciato 41" d="M364.824,246.493a7.589,7.589,0,0,0-5.514,2.187,7.729,7.729,0,0,0,0,10.882,8.048,8.048,0,0,0,11.029,0,7.727,7.727,0,0,0,0-10.882A7.589,7.589,0,0,0,364.824,246.493Zm3.128,11a4.2,4.2,0,0,1-6.233,0,5.1,5.1,0,0,1,0-6.73,4.179,4.179,0,0,1,6.233,0,5.1,5.1,0,0,1,0,6.73Z" transform="translate(-211.644 -246.493)" fill="#009fdf"/>
      <path id="Tracciato_42" data-name="Tracciato 42" d="M236.914,246.493a7.589,7.589,0,0,0-5.514,2.187,7.727,7.727,0,0,0,0,10.882,8.048,8.048,0,0,0,11.029,0,7.729,7.729,0,0,0,0-10.882A7.589,7.589,0,0,0,236.914,246.493Zm3.128,11a4.2,4.2,0,0,1-6.233,0,5.1,5.1,0,0,1,0-6.73,4.179,4.179,0,0,1,6.233,0,5.1,5.1,0,0,1,0,6.73Z" transform="translate(-153.501 -246.493)" fill="#009fdf"/>
      <path id="Tracciato_43" data-name="Tracciato 43" d="M494.014,246.493a7.589,7.589,0,0,0-5.514,2.187,7.726,7.726,0,0,0,0,10.882,8.048,8.048,0,0,0,11.029,0,7.729,7.729,0,0,0,0-10.882A7.591,7.591,0,0,0,494.014,246.493Zm3.127,11a4.2,4.2,0,0,1-6.233,0,5.1,5.1,0,0,1,0-6.73,4.179,4.179,0,0,1,6.233,0,5.1,5.1,0,0,1,0,6.73Z" transform="translate(-270.367 -246.493)" fill="#009fdf"/>
      <path id="Tracciato_44" data-name="Tracciato 44" d="M677.749,252.014a4.481,4.481,0,0,0-1.469-3.74q-1.47-1.161-4.912-1.162h-5.6v14.769h3.3V257.17h2.281l3.275,4.711h4.057l-3.74-5.282Q677.749,255.564,677.749,252.014Zm-3.973,1.754a3.545,3.545,0,0,1-2.3.549h-2.409v-4.373h2.471a4.056,4.056,0,0,1,2.219.443,1.867,1.867,0,0,1,.634,1.638A2.232,2.232,0,0,1,673.776,253.768Z" transform="translate(-351.965 -246.774)" fill="#009fdf"/>
      <path id="Tracciato_45" data-name="Tracciato 45" d="M638.034,249.965h4.183v11.916h3.3V249.965H649.7v-2.853H638.034Z" transform="translate(-339.358 -246.774)" fill="#009fdf"/>
      <path id="Tracciato_46" data-name="Tracciato 46" d="M716.786,249.641a4.8,4.8,0,0,1,3.888,1.944l2.049-2.325a7.8,7.8,0,0,0-6.086-2.768,7.577,7.577,0,0,0-5.5,2.2,7.8,7.8,0,0,0-.043,10.923,7.972,7.972,0,0,0,11.548-.676l-2.114-2.177a4.862,4.862,0,0,1-3.972,1.923,4.113,4.113,0,0,1-3.021-1.246,4.471,4.471,0,0,1-1.246-3.307,4.234,4.234,0,0,1,1.32-3.275A4.533,4.533,0,0,1,716.786,249.641Z" transform="translate(-371.564 -246.493)" fill="#009fdf"/>
      <path id="Tracciato_47" data-name="Tracciato 47" d="M738.558,249.965h4.183v11.916h3.3V249.965h4.183v-2.853H738.558Z" transform="translate(-385.052 -246.774)" fill="#009fdf"/>
      <rect id="Rettangolo_20" data-name="Rettangolo 20" width="3.296" height="14.769" transform="translate(20.344 0.338)" fill="#009fdf"/>
      <path id="Tracciato_48" data-name="Tracciato 48" d="M619.223,252.736a10.6,10.6,0,0,1-2.683-.9,1.171,1.171,0,0,1-.581-1.025,1.275,1.275,0,0,1,.476-1.035,1.987,1.987,0,0,1,1.3-.39,6.5,6.5,0,0,1,3.972,1.457l1.669-2.408A7.934,7.934,0,0,0,620.8,247a9.068,9.068,0,0,0-2.958-.507,6.072,6.072,0,0,0-3.771,1.142,3.82,3.82,0,0,0-1.511,3.243,3.765,3.765,0,0,0,1.193,3.084,9.447,9.447,0,0,0,3.772,1.6,7.187,7.187,0,0,1,2.176.792,1.233,1.233,0,0,1,.549,1.056,1.253,1.253,0,0,1-.518,1.056,2.315,2.315,0,0,1-1.426.391,6.99,6.99,0,0,1-4.416-2.092l-1.965,2.409a9.071,9.071,0,0,0,6.318,2.6,5.941,5.941,0,0,0,3.92-1.235,3.99,3.99,0,0,0,1.489-3.223,3.842,3.842,0,0,0-1.162-3.022A7.564,7.564,0,0,0,619.223,252.736Z" transform="translate(-327.489 -246.493)" fill="#009fdf"/>
      <rect id="Rettangolo_21" data-name="Rettangolo 21" width="3.296" height="14.769" transform="translate(330.221 0.338)" fill="#009fdf"/>
      <rect id="Rettangolo_22" data-name="Rettangolo 22" width="3.296" height="14.769" transform="translate(277.505 0.338)" fill="#009fdf"/>
      <rect id="Rettangolo_23" data-name="Rettangolo 23" width="3.296" height="14.769" transform="translate(208.751 0.338)" fill="#009fdf"/>
      <path id="Tracciato_49" data-name="Tracciato 49" d="M532.076,256.621l-7.247-9.509h-3.085v14.769h3.3v-9.254l7.036,9.254h3.3V247.112h-3.3Z" transform="translate(-286.497 -246.774)" fill="#009fdf"/>
      <path id="Tracciato_50" data-name="Tracciato 50" d="M169.182,247.112,162.8,261.881h3.508l1.373-3.19h6.191l1.373,3.19h3.507l-6.381-14.769Zm-.254,8.685,1.859-4.289,1.838,4.289Z" transform="translate(-123.336 -246.774)" fill="#009fdf"/>
      <path id="Tracciato_51" data-name="Tracciato 51" d="M572.712,247.112h-5.22v14.769h5.05q4.226,0,6.287-2.007a7.264,7.264,0,0,0,2.06-5.452,6.925,6.925,0,0,0-2.113-5.377A8.679,8.679,0,0,0,572.712,247.112Zm3.644,10.712a4.887,4.887,0,0,1-3.475,1.141h-2.092v-8.98h1.838a5.191,5.191,0,0,1,3.729,1.173,4.439,4.439,0,0,1,1.215,3.348A4.332,4.332,0,0,1,576.355,257.824Z" transform="translate(-307.293 -246.774)" fill="#009fdf"/>
      <path id="Tracciato_52" data-name="Tracciato 52" d="M102.8,247.112l-2.526,2.527-2,2-1.988-1.988-2.542-2.543h-3.3v14.769h3.3V251.774l3.881,3.882h1.3l1.682-1.683,2.2-2.2v10.107h3.3V247.112Z" transform="translate(-90.447 -246.774)" fill="#009fdf"/>
    </g>
  </g>
</svg>
